<?xml version="1.0" encoding="UTF-8" standalone="no"?>
<!-- Created with Inkscape (http://www.inkscape.org/) -->

<svg
   xmlns:dc="http://purl.org/dc/elements/1.1/"
   xmlns:cc="http://creativecommons.org/ns#"
   xmlns:rdf="http://www.w3.org/1999/02/22-rdf-syntax-ns#"
   xmlns:svg="http://www.w3.org/2000/svg"
   xmlns="http://www.w3.org/2000/svg"
   xmlns:sodipodi="http://sodipodi.sourceforge.net/DTD/sodipodi-0.dtd"
   xmlns:inkscape="http://www.inkscape.org/namespaces/inkscape"
   width="90"
   height="90"
   id="svg4855"
   version="1.1"
   inkscape:version="0.48.4 r9939"
   sodipodi:docname="loading.svg">
  <defs
     id="defs4857">
    <clipPath
       id="clipPath3061">
      <path
         inkscape:connector-curvature="0"
         id="path3063"
         d="m 278.09,590.01 c -2.677,-0.019 -5.355,-0.366 -7.879,-1.015 -1.821,-0.471 -3.564,-1.094 -5.219,-1.847 -2.87,-1.306 -5.475,-3.004 -7.772,-5.003 -1.828,-1.59 -3.46,-3.372 -4.873,-5.305 -0.003,-0.005 -0.007,-0.01 -0.011,-0.016 -0.024,-0.033 -0.048,-0.066 -0.073,-0.099 -0.006,-0.01 -0.013,-0.019 -0.02,-0.029 -0.039,-0.054 -0.078,-0.108 -0.117,-0.163 -0.011,-0.016 -0.022,-0.031 -0.033,-0.046 -0.014,-0.02 -0.028,-0.04 -0.042,-0.06 -0.019,-0.027 -0.038,-0.053 -0.056,-0.08 -0.012,-0.017 -0.024,-0.034 -0.036,-0.051 -0.023,-0.033 -0.046,-0.066 -0.069,-0.099 -0.008,-0.011 -0.016,-0.022 -0.023,-0.033 -0.273,-0.395 -0.538,-0.796 -0.793,-1.204 -2.063,-3.287 -3.545,-6.977 -4.304,-10.924 -0.76,-3.945 -0.76,-8.24 0,-12.187 0.663,-3.442 1.874,-6.688 3.542,-9.644 0.009,-0.017 0.019,-0.035 0.029,-0.052 0.006,-0.011 0.012,-0.022 0.019,-0.033 0.3,-0.527 0.615,-1.046 0.944,-1.556 0.761,-1.178 1.6,-2.307 2.51,-3.379 0.007,-0.007 0.014,-0.015 0.02,-0.023 0.023,-0.026 0.046,-0.053 0.069,-0.08 0.013,-0.016 0.027,-0.032 0.041,-0.048 0.019,-0.022 0.039,-0.045 0.059,-0.068 0.023,-0.028 0.047,-0.055 0.071,-0.083 0.011,-0.011 0.021,-0.023 0.031,-0.035 0.036,-0.041 0.072,-0.082 0.108,-0.123 0.008,-0.009 0.016,-0.018 0.024,-0.027 0.032,-0.036 0.064,-0.072 0.095,-0.107 0.006,-0.007 0.011,-0.013 0.017,-0.019 1.366,-1.527 2.876,-2.923 4.509,-4.165 1.101,-0.838 2.258,-1.607 3.464,-2.3 0.009,-0.005 0.018,-0.01 0.027,-0.015 0.017,-0.01 0.034,-0.02 0.05,-0.029 0.838,-0.478 1.703,-0.92 2.593,-1.325 1.658,-0.754 3.403,-1.378 5.227,-1.849 2.542,-0.652 5.241,-1 7.937,-1.013 2.169,-0.005 4.367,0.202 6.48,0.628 0.997,0.202 1.984,0.45 2.956,0.745 0.004,0.002 0.009,0.003 0.014,0.004 0.045,0.014 0.09,0.028 0.135,0.042 0.01,0.003 0.019,0.006 0.028,0.009 0.041,0.012 0.083,0.025 0.125,0.038 0.015,0.005 0.03,0.01 0.045,0.015 0.028,0.009 0.056,0.018 0.085,0.027 0.027,0.008 0.055,0.017 0.083,0.026 0.021,0.007 0.043,0.014 0.064,0.021 0.082,0.027 0.163,0.053 0.245,0.081 10e-4,0 0.003,0 0.004,0.001 1.492,0.498 2.935,1.102 4.32,1.805 1.986,1.006 3.853,2.213 5.574,3.594 0.029,0.022 0.057,0.045 0.085,0.068 0.01,0.008 0.02,0.016 0.031,0.025 1.401,1.135 2.72,2.399 3.937,3.784 2.367,2.695 4.346,5.852 5.745,9.404 0.229,0.582 0.443,1.174 0.64,1.777 0.998,3.051 1.551,6.302 1.581,9.68 v 0.017 c 0,0.027 0,0.054 10e-4,0.081 v 0.011 0.085 0.099 h -2.072 -4.999 v -0.098 -0.019 c -10e-4,-0.027 -10e-4,-0.054 -10e-4,-0.081 v -0.008 c -0.021,-2.597 -0.435,-5.048 -1.151,-7.318 -0.007,-0.021 -0.014,-0.043 -0.021,-0.064 -0.005,-0.015 -0.009,-0.03 -0.014,-0.045 -0.002,-0.005 -0.003,-0.009 -0.004,-0.013 -0.459,-1.429 -1.042,-2.801 -1.738,-4.105 -0.666,-1.248 -1.435,-2.433 -2.295,-3.544 -10e-4,-10e-4 -0.002,-0.003 -0.003,-0.004 -0.014,-0.017 -0.027,-0.034 -0.04,-0.052 -0.007,-0.008 -0.014,-0.017 -0.021,-0.026 -0.009,-0.011 -0.018,-0.023 -0.027,-0.035 -0.012,-0.015 -0.023,-0.03 -0.035,-0.045 -0.005,-0.006 -0.01,-0.012 -0.015,-0.019 -1.146,-1.452 -2.435,-2.754 -3.827,-3.892 -1.885,-1.541 -3.962,-2.782 -6.161,-3.702 -0.006,-0.002 -0.012,-0.005 -0.018,-0.007 -0.02,-0.009 -0.039,-0.017 -0.059,-0.025 -0.012,-0.005 -0.024,-0.01 -0.036,-0.015 -0.014,-0.006 -0.028,-0.012 -0.042,-0.017 -0.015,-0.006 -0.029,-0.012 -0.044,-0.018 -0.01,-0.004 -0.019,-0.008 -0.029,-0.012 -0.018,-0.007 -0.036,-0.015 -0.054,-0.022 -0.003,-10e-4 -0.005,-0.002 -0.007,-0.003 -0.641,-0.259 -1.296,-0.492 -1.963,-0.698 -0.012,-0.004 -0.024,-0.008 -0.036,-0.012 -0.013,-0.004 -0.027,-0.008 -0.04,-0.012 -0.017,-0.005 -0.034,-0.01 -0.05,-0.015 -0.01,-0.003 -0.019,-0.006 -0.029,-0.009 -0.023,-0.007 -0.046,-0.014 -0.07,-0.021 -0.004,-10e-4 -0.008,-0.002 -0.011,-0.003 -0.08,-0.024 -0.161,-0.048 -0.241,-0.071 -0.04,-0.011 -0.08,-0.023 -0.121,-0.034 -1.187,-0.335 -2.411,-0.584 -3.663,-0.741 -0.928,-0.116 -1.868,-0.178 -2.809,-0.187 -1.142,-0.017 -2.278,0.042 -3.384,0.177 -1.844,0.226 -3.606,0.647 -5.271,1.235 -0.238,0.084 -0.473,0.171 -0.706,0.261 -1.144,0.444 -2.248,0.97 -3.303,1.57 -0.016,0.009 -0.032,0.018 -0.048,0.028 -0.013,0.007 -0.026,0.015 -0.039,0.022 -2.481,1.424 -4.661,3.239 -6.479,5.337 -1.925,2.223 -3.446,4.764 -4.488,7.522 -1.043,2.758 -1.608,5.733 -1.608,8.84 0,3.106 0.565,6.082 1.608,8.84 1.042,2.758 2.563,5.298 4.489,7.521 1.925,2.222 4.256,4.128 6.921,5.586 2.665,1.458 5.666,2.47 8.924,2.867 1.07,0.131 2.168,0.19 3.272,0.179 0.98,-0.005 1.957,-0.067 2.922,-0.188 4.11,-0.514 7.909,-2.025 11.148,-4.284 3.239,-2.259 5.919,-5.264 7.788,-8.769 0.414,-0.775 0.788,-1.575 1.12,-2.397 1.117,-2.763 1.781,-5.836 1.808,-9.148 v -0.009 c 0,-0.026 0,-0.053 10e-4,-0.08 v -0.019 -0.099 h 4.999 2.072 v 0.099 0.077 0.02 c -10e-4,0.025 -10e-4,0.051 -10e-4,0.077 v 0.021 c -0.029,3.176 -0.519,6.24 -1.407,9.132 -0.244,0.792 -0.516,1.567 -0.814,2.324 -0.612,1.553 -1.334,3.031 -2.152,4.427 -10e-4,0.002 -0.002,0.005 -0.004,0.007 -0.027,0.046 -0.054,0.093 -0.082,0.139 -0.004,0.007 -0.007,0.013 -0.011,0.019 -0.023,0.039 -0.046,0.077 -0.069,0.115 -0.01,0.017 -0.02,0.034 -0.03,0.051 -0.016,0.026 -0.032,0.052 -0.047,0.078 -0.019,0.031 -0.038,0.061 -0.056,0.092 -0.009,0.015 -0.018,0.03 -0.028,0.045 -0.026,0.043 -0.052,0.086 -0.079,0.128 -0.003,0.005 -0.006,0.01 -0.009,0.015 -0.892,1.44 -1.895,2.804 -2.997,4.081 -0.006,0.007 -0.012,0.013 -0.018,0.02 -0.029,0.034 -0.059,0.068 -0.089,0.102 -0.013,0.015 -0.026,0.03 -0.039,0.045 -0.022,0.025 -0.043,0.05 -0.065,0.074 -0.019,0.022 -0.038,0.044 -0.058,0.065 -0.011,0.013 -0.022,0.026 -0.034,0.039 -0.028,0.032 -0.057,0.064 -0.085,0.096 -0.009,0.009 -0.018,0.019 -0.026,0.029 -0.031,0.034 -0.061,0.068 -0.092,0.101 -0.006,0.008 -0.013,0.015 -0.02,0.023 -0.031,0.034 -0.063,0.069 -0.094,0.103 -0.008,0.009 -0.017,0.018 -0.025,0.027 -0.023,0.026 -0.046,0.051 -0.07,0.076 -0.024,0.026 -0.048,0.052 -0.073,0.079 -0.002,0.002 -0.005,0.005 -0.007,0.008 -2.569,2.761 -5.617,5.07 -9.013,6.791 -2.12,1.075 -4.376,1.921 -6.735,2.506 h -10e-4 c -0.051,0.012 -0.102,0.025 -0.153,0.037 -0.028,0.007 -0.055,0.014 -0.082,0.02 -0.017,0.004 -0.033,0.008 -0.05,0.012 -0.04,0.01 -0.082,0.019 -0.122,0.029 -0.009,0.002 -0.018,0.004 -0.026,0.006 -0.311,0.072 -0.623,0.14 -0.935,0.203 -2.09,0.421 -4.262,0.629 -6.407,0.629 h -0.139" />
    </clipPath>
  </defs>
  <sodipodi:namedview
     id="base"
     pagecolor="#ffffff"
     bordercolor="#666666"
     borderopacity="1.0"
     inkscape:pageopacity="0.0"
     inkscape:pageshadow="2"
     inkscape:zoom="0.76"
     inkscape:cx="217.76316"
     inkscape:cy="-126.57271"
     inkscape:document-units="px"
     inkscape:current-layer="layer1"
     showgrid="false"
     fit-margin-top="0"
     fit-margin-left="0"
     fit-margin-right="0"
     fit-margin-bottom="0"
     inkscape:window-width="1680"
     inkscape:window-height="966"
     inkscape:window-x="-8"
     inkscape:window-y="-8"
     inkscape:window-maximized="1" />
  <metadata
     id="metadata4860">
    <rdf:RDF>
      <cc:Work
         rdf:about="">
        <dc:format>image/svg+xml</dc:format>
        <dc:type
           rdf:resource="http://purl.org/dc/dcmitype/StillImage" />
        <dc:title></dc:title>
      </cc:Work>
    </rdf:RDF>
  </metadata>
  <g
     inkscape:label="Layer 1"
     inkscape:groupmode="layer"
     id="layer1"
     transform="translate(-1.2109375e-6,-9.6679696e-7)">
    <g
       id="layer1-5"
       inkscape:label="Layer 1"
       transform="translate(4.91872,4.91842)">
      <g
         transform="translate(-4.375e-6,0)"
         inkscape:label="Layer 1"
         id="layer1-7">
        <g
           transform="matrix(1.25,0,0,-1.25,-307.75493,737.5125)"
           id="g3057"
           clip-path="none">
          <g
             id="g3059"
             clip-path="url(#clipPath3061)">
            <g
               id="g3065">
              <g
                 id="g3067"
                 transform="scale(1,-1)">
                <g
                   style="fill-rule:nonzero"
                   id="g3069">
                  <path
                     style="fill:#ffffff"
                     id="path3071"
                     d="m 303.26,-557.94 h 5 c 0,-3.9058 -0.74609,-7.6343 -2.1035,-11.057 -1.5557,0.60107 -3.1103,1.2012 -4.666,1.7998 1.1416,2.8633 1.7695,5.9873 1.7695,9.2573 z"
                     inkscape:connector-curvature="0" />
                  <path
                     style="fill:#ffffff"
                     id="path3073"
                     d="m 308.26,-557.94 h 2.0713 c 0,-4.168 -0.79492,-8.1484 -2.2412,-11.802 -0.64453,0.24805 -1.2881,0.49707 -1.9336,0.74463 1.3574,3.4228 2.1035,7.1514 2.1035,11.057 z"
                     inkscape:connector-curvature="0" />
                  <path
                     style="fill:#f8f8f8"
                     id="path3075"
                     d="m 301.5,-567.2 c 1.5557,-0.59863 3.1103,-1.1987 4.666,-1.7998 -0.41601,-1.0518 -0.89062,-2.0732 -1.4199,-3.0625 -1.4678,0.78906 -2.9385,1.5781 -4.4053,2.3667 0.43066,0.80664 0.81836,1.6396 1.1592,2.4956 z"
                     inkscape:connector-curvature="0" />
                  <path
                     style="fill:#f8f8f8"
                     id="path3077"
                     d="m 306.16,-569 c 0.64551,-0.24756 1.2891,-0.49658 1.9336,-0.74463 -0.44824,-1.1328 -0.95996,-2.2339 -1.5293,-3.2988 -0.60937,0.32666 -1.2158,0.65381 -1.8242,0.98095 0.5293,0.98926 1.0039,2.0107 1.4199,3.0625 z"
                     inkscape:connector-curvature="0" />
                  <path
                     style="fill:#f5f5f5"
                     id="path3079"
                     d="m 300.34,-569.7 c 1.4668,-0.78857 2.9375,-1.5776 4.4053,-2.3667 -1.1855,-2.2197 -2.6426,-4.2724 -4.3301,-6.1162 -1.2295,1.1235 -2.46,2.2471 -3.6914,3.3696 1.4082,1.54 2.626,3.2568 3.6162,5.1133 z"
                     inkscape:connector-curvature="0" />
                  <path
                     style="fill:#f5f5f5"
                     id="path3081"
                     d="m 304.74,-572.06 c 0.6084,-0.32714 1.2148,-0.65429 1.8242,-0.98095 -1.2676,-2.3696 -2.8242,-4.562 -4.623,-6.5293 -0.50976,0.46485 -1.0186,0.92969 -1.5312,1.394 1.6875,1.8438 3.1445,3.8965 4.3301,6.1162 z"
                     inkscape:connector-curvature="0" />
                  <path
                     style="fill:#f0f0f0"
                     id="path3083"
                     d="m 296.72,-574.81 c 1.2314,-1.1226 2.4619,-2.2461 3.6914,-3.3696 -1.4961,-1.6367 -3.1738,-3.1094 -5,-4.3848 -0.9541,1.3667 -1.9092,2.7334 -2.8633,4.0991 1.5225,1.062 2.9219,2.2891 4.1719,3.6553 z"
                     inkscape:connector-curvature="0" />
                  <path
                     style="fill:#f0f0f0"
                     id="path3085"
                     d="m 300.41,-578.18 c 0.5127,-0.46435 1.0215,-0.92919 1.5312,-1.394 -1.6006,-1.7515 -3.3936,-3.3252 -5.3447,-4.6875 -0.3955,0.56641 -0.79101,1.1318 -1.1865,1.6968 1.8262,1.2754 3.5039,2.748 5,4.3848 z"
                     inkscape:connector-curvature="0" />
                  <path
                     style="fill:#ececec"
                     id="path3087"
                     d="m 292.55,-578.47 c 0.9541,-1.3657 1.9092,-2.7324 2.8633,-4.0991 -1.1406,-0.79688 -2.3398,-1.5156 -3.5898,-2.1484 -0.74121,1.4932 -1.4814,2.9863 -2.2227,4.4795 1.0254,0.52246 2.0107,1.1138 2.9492,1.7681 z"
                     inkscape:connector-curvature="0" />
                  <path
                     style="fill:#ececec"
                     id="path3089"
                     d="m 295.41,-582.56 c 0.39551,-0.56494 0.79102,-1.1304 1.1865,-1.6968 -1.2256,-0.85546 -2.5137,-1.6274 -3.8555,-2.3076 -0.30566,0.61865 -0.61523,1.2378 -0.92089,1.856 1.25,0.63281 2.4492,1.3516 3.5898,2.1484 z"
                     inkscape:connector-curvature="0" />
                  <path
                     style="fill:#e9e9e9"
                     id="path3091"
                     d="m 289.6,-580.23 c 0.74121,-1.4932 1.4814,-2.9863 2.2227,-4.4795 -3.1973,-1.623 -6.7266,-2.6894 -10.453,-3.0703 0.0107,1.6777 0.0205,3.3555 0.0322,5.0337 2.9189,0.36572 5.6816,1.2339 8.1982,2.5161 z"
                     inkscape:connector-curvature="0" />
                  <path
                     style="fill:#e9e9e9"
                     id="path3093"
                     d="m 291.82,-584.71 c 0.30566,-0.61816 0.61523,-1.2373 0.92089,-1.856 -3.4795,-1.7637 -7.3242,-2.9111 -11.39,-3.2998 0.006,0.6958 0.009,1.3901 0.0156,2.0854 3.7266,0.38086 7.2558,1.4473 10.453,3.0703 z"
                     inkscape:connector-curvature="0" />
                  <path
                     style="fill:#e2e2e2"
                     id="path3095"
                     d="m 281.4,-582.75 c -0.0117,-1.6782 -0.0215,-3.356 -0.0322,-5.0337 -0.0732,-0.009 -0.14453,-0.0166 -0.21484,-0.0234 -0.16114,1.6592 -0.32129,3.3174 -0.48194,4.977 0.24366,0.023 0.48682,0.0498 0.72901,0.0801 z"
                     inkscape:connector-curvature="0" />
                  <path
                     style="fill:#e2e2e2"
                     id="path3097"
                     d="m 281.37,-587.78 c -0.007,-0.69531 -0.01,-1.3896 -0.0156,-2.0854 -0.0664,0.68799 -0.13184,1.3745 -0.19922,2.062 0.0703,0.007 0.1416,0.0147 0.21484,0.0234 z"
                     inkscape:connector-curvature="0" />
                  <path
                     style="fill:#e2e2e2"
                     id="path3099"
                     d="m 280.67,-582.83 c 0.16065,-1.6597 0.3208,-3.3179 0.48194,-4.977 -3.8047,-0.36328 -7.7461,0.0244 -11.322,1.0654 0.45996,1.6045 0.91895,3.209 1.3774,4.8125 3.0102,-0.87305 6.2871,-1.2002 9.4629,-0.90088 z"
                     inkscape:connector-curvature="0" />
                  <path
                     style="fill:#e2e2e2"
                     id="path3101"
                     d="m 281.15,-587.81 c 0.0674,-0.6875 0.13281,-1.374 0.19922,-2.062 -4.0659,-0.38867 -8.2827,0.0225 -12.091,1.1338 0.19092,0.66455 0.38135,1.3296 0.56982,1.9936 3.5762,-1.041 7.5176,-1.4287 11.322,-1.0654 z"
                     inkscape:connector-curvature="0" />
                  <path
                     style="fill:#dadada"
                     id="path3103"
                     d="m 271.21,-581.93 c -0.45849,-1.6035 -0.91748,-3.208 -1.3774,-4.8125 -0.82617,0.24121 -1.6396,0.5166 -2.4316,0.82519 0.60839,1.5513 1.2197,3.1045 1.8291,4.6558 0.64356,-0.24951 1.3052,-0.47265 1.98,-0.66845 z"
                     inkscape:connector-curvature="0" />
                  <path
                     style="fill:#dadada"
                     id="path3105"
                     d="m 269.83,-586.74 c -0.18847,-0.66406 -0.3789,-1.3291 -0.56982,-1.9936 -0.89014,0.25976 -1.7642,0.55713 -2.6206,0.89013 0.25293,0.64307 0.50586,1.2856 0.75879,1.9287 0.79199,-0.30859 1.6055,-0.58398 2.4316,-0.82519 z"
                     inkscape:connector-curvature="0" />
                  <path
                     style="fill:#d8d8d8"
                     id="path3107"
                     d="m 269.23,-581.26 c -0.60937,-1.5513 -1.2207,-3.1045 -1.8291,-4.6558 -2.6328,1.0225 -5.082,2.4043 -7.293,4.0889 1.0068,1.3301 2.0107,2.6602 3.0151,3.9907 1.8501,-1.4106 3.9028,-2.5688 6.1069,-3.4238 z"
                     inkscape:connector-curvature="0" />
                  <path
                     style="fill:#d8d8d8"
                     id="path3109"
                     d="m 267.4,-585.92 c -0.25293,-0.64306 -0.50586,-1.2856 -0.75879,-1.9287 -2.8076,1.0918 -5.4228,2.5679 -7.7822,4.3638 0.41601,0.5503 0.833,1.103 1.248,1.6538 2.2109,-1.6846 4.6602,-3.0664 7.293,-4.0889 z"
                     inkscape:connector-curvature="0" />
                  <path
                     style="fill:#d3d3d3"
                     id="path3111"
                     d="m 263.12,-577.84 c -1.0044,-1.3306 -2.0083,-2.6606 -3.0151,-3.9907 -1.5488,1.1787 -2.9766,2.5049 -4.2695,3.958 1.2451,1.1079 2.4912,2.2158 3.7373,3.3228 1.0732,-1.207 2.2612,-2.3096 3.5474,-3.29 z"
                     inkscape:connector-curvature="0" />
                  <path
                     style="fill:#d3d3d3"
                     id="path3113"
                     d="m 260.11,-581.83 c -0.41504,-0.55078 -0.83203,-1.1035 -1.248,-1.6538 -1.6572,1.2617 -3.1875,2.6807 -4.5688,4.2349 0.51611,0.45947 1.0327,0.91846 1.5474,1.377 1.293,-1.4531 2.7207,-2.7793 4.2695,-3.958 z"
                     inkscape:connector-curvature="0" />
                  <path
                     style="fill:#cfcfcf"
                     id="path3115"
                     d="m 259.57,-574.55 c -1.2461,-1.1069 -2.4922,-2.2148 -3.7373,-3.3228 -1.1055,1.2432 -2.1104,2.5801 -3,3.9961 1.419,0.87744 2.8369,1.7549 4.2544,2.6318 0.73682,-1.1709 1.5679,-2.2764 2.4829,-3.3052 z"
                     inkscape:connector-curvature="0" />
                  <path
                     style="fill:#cfcfcf"
                     id="path3117"
                     d="m 255.84,-577.87 c -0.51465,-0.45849 -1.0312,-0.91748 -1.5474,-1.377 -1.1856,1.333 -2.2617,2.7661 -3.2139,4.2847 0.5874,0.36328 1.1743,0.72656 1.7612,1.0884 0.88965,-1.416 1.8945,-2.7529 3,-3.9961 z"
                     inkscape:connector-curvature="0" />
                  <path
                     style="fill:#cccccc"
                     id="path3119"
                     d="m 257.09,-571.24 c -1.4175,-0.87695 -2.8354,-1.7544 -4.2544,-2.6318 -1.8594,2.9639 -3.2129,6.2773 -3.9394,9.8174 1.71,-0.0137 3.4209,-0.0283 5.1308,-0.0425 0.64843,-2.5615 1.6924,-4.9653 3.063,-7.143 z"
                     inkscape:connector-curvature="0" />
                  <path
                     style="fill:#cccccc"
                     id="path3121"
                     d="m 252.84,-573.87 c -0.58691,-0.36182 -1.1738,-0.7251 -1.7612,-1.0884 -2.0625,3.2881 -3.5444,6.9775 -4.3037,10.924 0.7085,-0.006 1.4175,-0.0122 2.1255,-0.0181 0.72656,-3.54 2.0801,-6.8535 3.9394,-9.8174 z"
                     inkscape:connector-curvature="0" />
                  <path
                     style="fill:#c5c5c5"
                     id="path3123"
                     d="m 254.03,-564.1 c -1.71,0.0142 -3.4209,0.0288 -5.1308,0.0425 -0.0332,0.13379 -0.0635,0.26953 -0.0889,0.40527 1.6367,0.3125 3.2754,0.625 4.9136,0.93701 0.0889,-0.46728 0.19091,-0.92919 0.30615,-1.3848 z"
                     inkscape:connector-curvature="0" />
                  <path
                     style="fill:#c5c5c5"
                     id="path3125"
                     d="m 248.9,-564.06 c -0.70801,0.006 -1.417,0.0117 -2.1255,0.0181 0.67822,0.12939 1.3569,0.2583 2.0366,0.3872 0.0254,-0.13574 0.0557,-0.27148 0.0889,-0.40527 z"
                     inkscape:connector-curvature="0" />
                  <path
                     style="fill:#c4c4c4"
                     id="path3127"
                     d="m 253.72,-562.71 c -1.6382,-0.31201 -3.2768,-0.62451 -4.9136,-0.93701 -0.70996,3.7002 -0.70996,7.7119 -9.8e-4,11.412 1.6377,-0.31201 3.2764,-0.62402 4.9141,-0.93652 -0.58838,-3.1045 -0.58838,-6.4341 4.9e-4,-9.5386 z"
                     inkscape:connector-curvature="0" />
                  <path
                     style="fill:#c4c4c4"
                     id="path3129"
                     d="m 248.81,-563.65 c -0.67969,-0.1289 -1.3584,-0.25781 -2.0366,-0.3872 -0.75927,3.9463 -0.75927,8.2412 0,12.187 0.67822,-0.12989 1.3569,-0.25879 2.0356,-0.38819 -0.70898,-3.7002 -0.70898,-7.7119 9.8e-4,-11.412 z"
                     inkscape:connector-curvature="0" />
                  <path
                     style="fill:#bdbdbd"
                     id="path3131"
                     d="m 253.72,-553.17 c -1.6377,0.3125 -3.2764,0.62451 -4.9141,0.93652 0.11036,0.57422 0.23731,1.1426 0.37891,1.7031 1.6142,-0.41552 3.2275,-0.833 4.8418,-1.2515 -0.11572,-0.45654 -0.21778,-0.91992 -0.30664,-1.3882 z"
                     inkscape:connector-curvature="0" />
                  <path
                     style="fill:#bdbdbd"
                     id="path3133"
                     d="m 248.81,-552.24 c -0.67871,0.1294 -1.3574,0.2583 -2.0356,0.38819 0.11914,0.61816 0.25586,1.23 0.40967,1.835 0.66894,-0.17383 1.3369,-0.3457 2.0049,-0.52002 -0.1416,-0.56054 -0.26855,-1.1289 -0.37891,-1.7031 z"
                     inkscape:connector-curvature="0" />
                  <path
                     style="fill:#bcbcbc"
                     id="path3135"
                     d="m 254.03,-551.79 c -1.6143,0.41846 -3.2275,0.83594 -4.8418,1.2515 0.77637,3.0547 2.0195,5.9199 3.6504,8.5185 1.418,-0.87695 2.835,-1.7539 4.2534,-2.6308 -1.3701,-2.1763 -2.4136,-4.5781 -3.062,-7.1392 z"
                     inkscape:connector-curvature="0" />
                  <path
                     style="fill:#bcbcbc"
                     id="path3137"
                     d="m 249.19,-550.53 c -0.66797,0.17432 -1.3359,0.34619 -2.0049,0.52002 0.82812,3.2568 2.1543,6.3149 3.8936,9.0879 0.58789,-0.3628 1.1748,-0.72608 1.7617,-1.0894 -1.6308,-2.5986 -2.874,-5.4638 -3.6504,-8.5185 z"
                     inkscape:connector-curvature="0" />
                  <path
                     style="fill:#b5b5b5"
                     id="path3139"
                     d="m 257.09,-544.65 c -1.4184,0.87695 -2.8354,1.7539 -4.2534,2.6308 0.88965,1.416 1.8945,2.7539 3,3.9971 1.2471,-1.1069 2.4912,-2.2139 3.7373,-3.3228 -0.91504,-1.0293 -1.7466,-2.1348 -2.4839,-3.3052 z"
                     inkscape:connector-curvature="0" />
                  <path
                     style="fill:#b5b5b5"
                     id="path3141"
                     d="m 252.84,-542.02 c -0.58691,0.36328 -1.1738,0.72656 -1.7617,1.0894 0.95263,1.5186 2.0288,2.9516 3.2148,4.2856 0.51562,-0.45947 1.0322,-0.91845 1.5469,-1.3779 -1.1055,-1.2432 -2.1104,-2.581 -3,-3.9971 z"
                     inkscape:connector-curvature="0" />
                  <path
                     style="fill:#b2b2b2"
                     id="path3143"
                     d="m 259.57,-541.34 c -1.2461,1.1089 -2.4902,2.2158 -3.7373,3.3228 1.293,1.4531 2.7226,2.7803 4.2695,3.959 1.0068,-1.3306 2.0088,-2.6611 3.0142,-3.9912 -1.2856,-0.98096 -2.4736,-2.0835 -3.5464,-3.2905 z"
                     inkscape:connector-curvature="0" />
                  <path
                     style="fill:#b2b2b2"
                     id="path3145"
                     d="m 255.84,-538.02 c -0.51465,0.45947 -1.0312,0.91845 -1.5469,1.3779 1.3818,1.5542 2.9126,2.9731 4.5693,4.2339 0.41699,-0.55078 0.83203,-1.1016 1.2471,-1.6528 -1.5469,-1.1787 -2.9766,-2.5058 -4.2695,-3.959 z"
                     inkscape:connector-curvature="0" />
                  <path
                     style="fill:#aeaeae"
                     id="path3147"
                     d="m 263.12,-538.05 c -1.0054,1.3301 -2.0073,2.6606 -3.0142,3.9912 2.2109,1.6816 4.6641,3.0664 7.2949,4.0908 0.61035,-1.5518 1.2178,-3.1035 1.8276,-4.6558 -2.2046,-0.85498 -4.2578,-2.0146 -6.1084,-3.4263 z"
                     inkscape:connector-curvature="0" />
                  <path
                     style="fill:#aeaeae"
                     id="path3149"
                     d="m 260.11,-534.06 c -0.41504,0.55127 -0.83008,1.102 -1.2471,1.6528 2.3599,1.7959 4.9761,3.2734 7.7847,4.3662 0.25341,-0.64208 0.50439,-1.2856 0.75732,-1.9282 -2.6308,-1.0244 -5.084,-2.4092 -7.2949,-4.0908 z"
                     inkscape:connector-curvature="0" />
                  <path
                     style="fill:#a9a9a9"
                     id="path3151"
                     d="m 269.23,-534.63 c -0.60986,1.5522 -1.2173,3.104 -1.8276,4.6558 0.79297,0.30761 1.6035,0.583 2.4297,0.82324 0.45801,-1.603 0.91699,-3.208 1.3755,-4.8115 -0.67383,-0.19531 -1.3345,-0.41797 -1.9775,-0.66748 z"
                     inkscape:connector-curvature="0" />
                  <path
                     style="fill:#a9a9a9"
                     id="path3153"
                     d="m 267.4,-529.97 c -0.25293,0.64257 -0.50391,1.2861 -0.75732,1.9282 0.85498,0.33252 1.728,0.6294 2.6172,0.88867 0.19092,-0.66503 0.37939,-1.3291 0.56982,-1.9936 -0.82617,-0.24024 -1.6367,-0.51563 -2.4297,-0.82324 z"
                     inkscape:connector-curvature="0" />
                  <path
                     style="fill:#a7a7a7"
                     id="path3155"
                     d="m 271.21,-533.96 c -0.4585,1.6035 -0.91748,3.2085 -1.3755,4.8115 3.5742,1.041 7.5176,1.4277 11.322,1.0644 -0.16114,-1.6577 -0.32129,-3.3174 -0.48194,-4.977 -3.1772,0.2998 -6.4541,-0.0259 -9.4648,-0.89893 z"
                     inkscape:connector-curvature="0" />
                  <path
                     style="fill:#a7a7a7"
                     id="path3157"
                     d="m 269.83,-529.15 c -0.19043,0.66455 -0.3789,1.3286 -0.56982,1.9936 3.8086,1.1113 8.0273,1.5225 12.093,1.1338 -0.0664,-0.6875 -0.13379,-1.375 -0.20117,-2.063 -3.8047,0.36328 -7.748,-0.0234 -11.322,-1.0644 z"
                     inkscape:connector-curvature="0" />
                  <path
                     style="fill:#9f9f9f"
                     id="path3159"
                     d="m 280.67,-533.06 c 0.16065,1.6597 0.3208,3.3193 0.48194,4.977 0.29687,-0.0273 0.59375,-0.0596 0.88867,-0.0977 -0.21387,-1.6528 -0.42871,-3.3057 -0.64258,-4.9595 -0.24219,0.0303 -0.48486,0.0571 -0.72803,0.0801 z"
                     inkscape:connector-curvature="0" />
                  <path
                     style="fill:#9f9f9f"
                     id="path3161"
                     d="m 281.15,-528.08 c 0.0674,0.68798 0.13476,1.3755 0.20117,2.063 0.31933,-0.0303 0.63672,-0.0654 0.95312,-0.10498 -0.0898,-0.68506 -0.17676,-1.3696 -0.26562,-2.0557 -0.29492,0.0381 -0.5918,0.0703 -0.88867,0.0977 z"
                     inkscape:connector-curvature="0" />
                  <path
                     style="fill:#9f9f9f"
                     id="path3163"
                     d="m 281.4,-533.14 c 0.21387,1.6538 0.42871,3.3066 0.64258,4.9595 3.4805,-0.4375 6.7754,-1.4707 9.7793,-2.9961 -0.74121,-1.4917 -1.4834,-2.9853 -2.2236,-4.479 -2.5166,1.2822 -5.2793,2.1509 -8.1982,2.5156 z"
                     inkscape:connector-curvature="0" />
                  <path
                     style="fill:#9f9f9f"
                     id="path3165"
                     d="m 282.04,-528.18 c 0.0889,0.68604 0.17578,1.3706 0.26562,2.0557 3.7139,-0.46728 7.2285,-1.5698 10.435,-3.1948 -0.30566,-0.61816 -0.61523,-1.2373 -0.92089,-1.8569 -3.0039,1.5254 -6.2988,2.5586 -9.7793,2.9961 z"
                     inkscape:connector-curvature="0" />
                  <path
                     style="fill:#989898"
                     id="path3167"
                     d="m 289.6,-535.65 c 0.74023,1.4936 1.4824,2.9873 2.2236,4.479 1.25,-0.63378 2.4492,-1.3525 3.5918,-2.1494 -0.9541,-1.3672 -1.9111,-2.7324 -2.8652,-4.0991 -0.93848,0.6543 -1.9238,1.2461 -2.9502,1.7695 z"
                     inkscape:connector-curvature="0" />
                  <path
                     style="fill:#989898"
                     id="path3169"
                     d="m 291.82,-531.18 c 0.30566,0.61963 0.61523,1.2388 0.92089,1.8569 1.3428,-0.68066 2.6318,-1.4531 3.8584,-2.3091 -0.39453,-0.56641 -0.79003,-1.1318 -1.1875,-1.6973 -1.1426,0.79688 -2.3418,1.5156 -3.5918,2.1494 z"
                     inkscape:connector-curvature="0" />
                  <path
                     style="fill:#959595"
                     id="path3171"
                     d="m 292.55,-537.42 c 0.9541,1.3667 1.9111,2.7319 2.8652,4.0991 1.8262,-1.2744 3.5019,-2.7461 4.998,-4.3838 -1.2295,-1.1226 -2.4619,-2.2451 -3.6934,-3.3691 -1.249,1.3657 -2.6474,2.5923 -4.1699,3.6538 z"
                     inkscape:connector-curvature="0" />
                  <path
                     style="fill:#959595"
                     id="path3173"
                     d="m 295.41,-533.32 c 0.39746,0.56543 0.79296,1.1309 1.1875,1.6973 1.9502,-1.3613 3.7422,-2.9341 5.3428,-4.685 -0.51074,-0.46485 -1.0195,-0.93067 -1.5322,-1.396 -1.4961,1.6377 -3.1719,3.1094 -4.998,4.3838 z"
                     inkscape:connector-curvature="0" />
                  <path
                     style="fill:#919191"
                     id="path3175"
                     d="m 296.72,-541.08 c 1.2314,1.124 2.4639,2.2466 3.6934,3.3691 1.6875,-1.8437 3.1445,-3.8965 4.3301,-6.1172 -1.4678,-0.78858 -2.9365,-1.5772 -4.4053,-2.3667 -0.99023,1.8574 -2.209,3.5747 -3.6182,5.1147 z"
                     inkscape:connector-curvature="0" />
                  <path
                     style="fill:#919191"
                     id="path3177"
                     d="m 300.41,-537.71 c 0.5127,0.46533 1.0215,0.93115 1.5322,1.396 1.7988,-1.9683 3.3555,-4.1616 4.623,-6.5327 -0.6084,-0.32666 -1.2168,-0.6538 -1.8252,-0.98046 -1.1855,2.2207 -2.6426,4.2734 -4.3301,6.1172 z"
                     inkscape:connector-curvature="0" />
                  <path
                     style="fill:#8c8c8c"
                     id="path3179"
                     d="m 300.34,-546.19 c 1.4688,0.78955 2.9375,1.5781 4.4053,2.3667 0.5293,-0.98828 1.002,-2.0107 1.4199,-3.0625 -1.5557,-0.59912 -3.1123,-1.1982 -4.667,-1.7978 -0.34082,0.85547 -0.72851,1.688 -1.1582,2.4936 z"
                     inkscape:connector-curvature="0" />
                  <path
                     style="fill:#8c8c8c"
                     id="path3181"
                     d="m 304.74,-543.83 c 0.6084,0.32666 1.2168,0.6538 1.8252,0.98046 0.56933,-1.0644 1.0801,-2.1645 1.5283,-3.2964 -0.64453,-0.24804 -1.2881,-0.49609 -1.9336,-0.74658 -0.41796,1.0518 -0.89062,2.0742 -1.4199,3.0625 z"
                     inkscape:connector-curvature="0" />
                  <path
                     style="fill:#898989"
                     id="path3183"
                     d="m 301.49,-548.69 c 1.5547,0.59961 3.1113,1.1987 4.667,1.7978 1.3574,-3.4209 2.1035,-7.1504 2.1035,-11.055 h -5 c 0,3.2705 -0.62792,6.394 -1.7705,9.2573 z"
                     inkscape:connector-curvature="0" />
                  <path
                     style="fill:#898989"
                     id="path3185"
                     d="m 306.16,-546.89 c 0.64551,0.25049 1.2891,0.49854 1.9336,0.74658 1.4463,-3.6533 2.2412,-7.6338 2.2412,-11.802 h -2.0713 c 0,3.9048 -0.74609,7.6343 -2.1035,11.055 z"
                     inkscape:connector-curvature="0" />
                </g>
              </g>
            </g>
          </g>
        </g>
      </g>
    </g>
  </g>
</svg>
